<svg width="44" height="44" viewBox="0 0 44 44" fill="none" xmlns="http://www.w3.org/2000/svg">
<circle cx="22" cy="22" r="22" fill="#515151"/>
<circle cx="22" cy="22" r="17" fill="#3D3D3D"/>
<path d="M17.9844 31.0156H22.0156C22.0156 31.5469 21.8125 32.0156 21.4062 32.4219C21.0312 32.7969 20.5625 32.9844 20 32.9844C19.4375 32.9844 18.9531 32.7969 18.5469 32.4219C18.1719 32.0156 17.9844 31.5469 17.9844 31.0156ZM16.0156 29.9844H23.9844V28.0156H16.0156V29.9844ZM27.5 20.5156C27.5 21.4531 27.3594 22.2969 27.0781 23.0469C26.7969 23.7656 26.4375 24.3906 26 24.9219C25.5938 25.4531 25.1719 25.8906 24.7344 26.2344C24.3281 26.5781 24 26.8281 23.75 26.9844H16.25C16 26.8281 15.6562 26.5781 15.2188 26.2344C14.8125 25.8906 14.3906 25.4531 13.9531 24.9219C13.5469 24.3906 13.2031 23.7656 12.9219 23.0469C12.6406 22.2969 12.5 21.4531 12.5 20.5156C12.5 19.4844 12.6875 18.5156 13.0625 17.6094C13.4688 16.7031 14.0156 15.9062 14.7031 15.2188C15.3906 14.5312 16.1875 14 17.0938 13.625C18 13.2188 18.9688 13.0156 20 13.0156C21.0312 13.0156 22 13.2188 22.9062 13.625C23.8125 14 24.6094 14.5312 25.2969 15.2188C25.9844 15.9062 26.5156 16.7031 26.8906 17.6094C27.2969 18.5156 27.5 19.4844 27.5 20.5156ZM32.375 18.3594L31.0156 19.0156L32.375 19.625L32.9844 20.9844L33.6406 19.625L35 19.0156L33.6406 18.3594L32.9844 17L32.375 18.3594ZM29.9844 17L30.9219 14.9375L32.9844 14L30.9219 13.0625L29.9844 11L29.0469 13.0625L26.9844 14L29.0469 14.9375L29.9844 17Z" fill="white"/>
</svg>
